<?xml version="1.0" encoding="utf-8"?>
<svg version="1.1" xmlns="http://www.w3.org/2000/svg" xmlns:xlink="http://www.w3.org/1999/xlink" x="0px" y="0px" viewBox="0 0 256 256" style="enable-background:new 0 0 256 256;" xml:space="preserve">
<style type="text/css">.st0{fill:#231F20;}.st1{fill:#EC1C24;}.st2{fill:#00DD0A;}.st3{fill:#71B8FF;}</style>
<path class="st0" d="M251,0h-23.3c-2.8,0-5,2.2-5,5v217.7H33.3V5c0-2.8-2.2-5-5-5H5C2.2,0,0,2.2,0,5v246c0,2.8,2.2,5,5,5h246 c2.8,0,5-2.2,5-5V5C256,2.2,253.8,0,251,0z"/><g><path class="st1" d="M67,210.8H49.7c-1.7,0-3-1.3-3-3v-67.1c0-1.7,1.3-3,3-3H67c1.7,0,3,1.3,3,3v67.1C70,209.4,68.6,210.8,67,210.8 z"/><path class="st1" d="M100.9,82H83.6c-1.7,0-3-1.3-3-3V54.8c0-1.7,1.3-3,3-3h17.3c1.7,0,3,1.3,3,3V79C103.9,80.7,102.6,82,100.9,82z"/></g><g><path class="st2" d="M135.8,210.8h-17.3c-1.7,0-3-1.3-3-3v-67.1c0-1.7,1.3-3,3-3h17.3c1.7,0,3,1.3,3,3v67.1 C138.8,209.4,137.5,210.8,135.8,210.8z"/><path class="st2" d="M170.7,167.8h-17.3c-1.7,0-3-1.3-3-3V97.7c0-1.7,1.3-3,3-3h17.3c1.7,0,3,1.3,3,3v67.1 C173.7,166.5,172.4,167.8,170.7,167.8z"/><path class="st2" d="M170.7,82h-17.3c-1.7,0-3-1.3-3-3V54.8c0-1.7,1.3-3,3-3h17.3c1.7,0,3,1.3,3,3V79C173.7,80.7,172.4,82,170.7,82 z"/></g><g><path class="st3" d="M67,124.9H49.7c-1.7,0-3-1.3-3-3V54.8c0-1.7,1.3-3,3-3H67c1.7,0,3,1.3,3,3v67.1C70,123.6,68.6,124.9,67,124.9z"/><path class="st3" d="M135.8,124.9h-17.3c-1.7,0-3-1.3-3-3V54.8c0-1.7,1.3-3,3-3h17.3c1.7,0,3,1.3,3,3v67.1 C138.8,123.6,137.5,124.9,135.8,124.9z"/><path class="st3" d="M100.9,167.8H83.6c-1.7,0-3-1.3-3-3V97.7c0-1.7,1.3-3,3-3h17.3c1.7,0,3,1.3,3,3v67.1 C103.9,166.5,102.6,167.8,100.9,167.8z"/><path class="st3" d="M100.9,210.8H83.6c-1.7,0-3-1.3-3-3v-23.9c0-1.7,1.3-3,3-3h17.3c1.7,0,3,1.3,3,3v23.9 C103.9,209.4,102.6,210.8,100.9,210.8z"/><path class="st3" d="M205.7,210.8h-17.3c-1.7,0-3-1.3-3-3v-67.1c0-1.7,1.3-3,3-3h17.3c1.7,0,3,1.3,3,3v67.1 C208.7,209.4,207.3,210.8,205.7,210.8z"/><path class="st3" d="M205.7,124.9h-17.3c-1.7,0-3-1.3-3-3V54.8c0-1.7,1.3-3,3-3h17.3c1.7,0,3,1.3,3,3v67.1 C208.7,123.6,207.3,124.9,205.7,124.9z"/><path class="st3" d="M170.7,210.8h-17.3c-1.7,0-3-1.3-3-3v-23.9c0-1.7,1.3-3,3-3h17.3c1.7,0,3,1.3,3,3v23.9 C173.7,209.4,172.4,210.8,170.7,210.8z"/></g></svg>